# xmcd
#
# Track frame offsets:
#	150
#	14988
#	32142
#	49766
#	68319
#	83465
#	100888
#	119010
#	145202
#	161128
#	182226
#	201552
#	220101
#	238328
#	260178
#	276803
#	290779
#	303778
#	316464
#	330101
#
# Disc length: 4627 seconds
#
# Revision: 1
# Processed by: cddbd v1.5.2PL0 Copyright (c) Steve Scherf et al.
# Submitted via: audiograbber 1.83.01
#
DISCID=34121114
DTITLE=Joe Camilleri - I Believe To My Soul - The Best Of 1977-2003 [Disc 2]
DYEAR=2004
DGENRE=Rock
TTITLE0=The Black Sorrows - Dear Children
TTITLE1=The Black Sorrows - Hold On To Me
TTITLE2=The Black Sorrows - Chained To The Wheel
TTITLE3=The Black Sorrows - The Chosen Ones
TTITLE4=The Black Sorrows - The Crack Up
TTITLE5=The Black Sorrows - Harley And Rose
TTITLE6=The Black Sorrows - Never Let Me Go
TTITLE7=The Black Sorrows - Ain't Love The Strangest Thing
TTITLE8=The Black Sorrows - Stir It Up
TTITLE9=The Black Sorrows - Snake Skin Shoes
TTITLE10=The Black Sorrows - New Craze
TTITLE11=The Black Sorrows - Everyone Is King
TTITLE12=Joe Camilleri - All Saints Hotel
TTITLE13=The Revelators - Caribbean Wind
TTITLE14=The Revelators - What Does It Take (To Win Your Love)?
TTITLE15=The Revelators - Turn Me On
TTITLE16=The Revelators - Honest I Do
TTITLE17=The Revelators - Hell To Pay
TTITLE18=Jo Jo Zep and The Falcons - Ain't Got No Money
TTITLE19=Bakelite Radio - Little Murders
EXTD=
EXTT0=
EXTT1=
EXTT2=
EXTT3=
EXTT4=
EXTT5=
EXTT6=
EXTT7=
EXTT8=
EXTT9=
EXTT10=
EXTT11=
EXTT12=
EXTT13=
EXTT14=
EXTT15=
EXTT16=
EXTT17=
EXTT18=
EXTT19=
PLAYORDER=
